PathFileType	4	(X/Y/Z)	65_2_68_p1_0-207_filt_butterworth.trc
DataRate	CameraRate	NumFrames	NumMarkers	Units	OrigDataRate	OrigDataStartFrame	OrigNumFrames
49.0	49.0	5	27	m	49.0	25	207
Frame#	Time	RHip			RKnee			RAnkle			RBigToe			RSmallToe			RHeel			LHip			LKnee			LAnkle			LBigToe			LSmallToe			LHeel			Neck			Head			Nose			RShoulder			RElbow			RWrist			RThumb			RIndex			RPinky			LShoulder			LElbow			LWrist			LThumb			LIndex			LPinky			
		X1	Y1	Z1	X2	Y2	Z2	X3	Y3	Z3	X4	Y4	Z4	X5	Y5	Z5	X6	Y6	Z6	X7	Y7	Z7	X8	Y8	Z8	X9	Y9	Z9	X10	Y10	Z10	X11	Y11	Z11	X12	Y12	Z12	X13	Y13	Z13	X14	Y14	Z14	X15	Y15	Z15	X16	Y16	Z16	X17	Y17	Z17	X18	Y18	Z18	X19	Y19	Z19	X20	Y20	Z20	X21	Y21	Z21	X22	Y22	Z22	X23	Y23	Z23	X24	Y24	Z24	X25	Y25	Z25	X26	Y26	Z26	X27	Y27	Z27	
25	0.5102040816326531	0.41622849685841146	0.7299013109662359	0.27486016896189747	0.37794941761690803	0.9083697791061858	0.7062142787331878	0.2999755395126798	1.088488325496872	1.1190900413187137	0.2752960772709169	0.8087914889577192	1.1946737816716944	0.35450095171043927	0.8587793801240722	1.1892418679565786	0.28422798982107267	1.1583178087875625	1.1685270483454517	0.18757465897272596	0.7507319789418484	0.25542867100432404	0.15263752890561147	0.9131613707105496	0.6833931309451762	0.12054540296319968	1.0304179909368263	1.0784114955693207	0.14204986787027915	0.8607700838831832	1.1865644693717363	0.07251128051438413	0.9043139352778731	1.1678857732282575	0.1340982684560786	1.1172241762697275	1.121710098875228	0.36043537840933704	0.5666641400807099	-0.38545128578902915	0.40036663698817	0.4011145576301067	-0.628992989777573	0.37810103751298174	0.3842628908842482	-0.4523862444179274	0.5289224587496762	0.571290734457554	-0.25501934364963913	0.5252143468095465	0.6255986338952157	0.025220623007597413	0.3725539077620024	0.5313080488285311	0.2441632360007116	0.2879389702554082	0.5228115677359805	0.2816695602333099	0.27327961713753657	0.55882617778206	0.3167406339140121	0.2736689057248732	0.5838841099116081	0.3390898109742922	0.17745410854362048	0.6620536137149314	-0.324864651606316	0.10585535009464975	0.6503398930271207	-0.024663150797041657	0.21194601171097116	0.5217394426730302	0.19035010667022528	0.3279235654296654	0.5258022702035889	0.2603590731594466	0.32637644468496996	0.523478058372864	0.28418404032721134	0.2815490799529255	0.5493394324235806	0.33498392459226584
26	0.5306122448979592	0.416236502903348	0.7300617780341273	0.27491057606992475	0.3776823227227999	0.9082046350421435	0.7063962103304412	0.29999095496031136	1.0885275471535956	1.119176075340221	0.2752974436066179	0.8084297573698678	1.1945779490535655	0.3550291079886727	0.8576545416580686	1.1889020857455785	0.28422008228040785	1.1582093648460248	1.168070431729877	0.1875787905866957	0.7508320627197982	0.255400474934086	0.15297927687878954	0.9127492633987444	0.6831789695590984	0.12053430081346082	1.0306163722584607	1.078576914607057	0.14164673840075542	0.8600727646722005	1.1850873986308192	0.07242279060739967	0.9045971292836993	1.1679464537875726	0.13406150572878597	1.1171166358226419	1.1214474084849793	0.3604373731732927	0.5666657259470538	-0.38552306923074	0.40060191280911966	0.3961570021126273	-0.6273222820471617	0.3769834581181307	0.38113296767069865	-0.44995891111017083	0.5289242550259909	0.5713306143209597	-0.255066835668622	0.528400304303914	0.6247815281995861	0.024116166356850634	0.3728784223960453	0.5323751805827925	0.24039253045952919	0.2884953840571936	0.5239753585890118	0.2796559521418864	0.27362627928458455	0.5575942884079921	0.31319062925530883	0.2740124632112271	0.5833737232755926	0.33627316514843375	0.17786560095150727	0.6659265397689135	-0.3255399524129532	0.10580776278652036	0.6504265616991178	-0.02467601553823267	0.21194000823907894	0.5217669489939774	0.19020325188380346	0.32809049462199247	0.5254422935765354	0.25989614043861564	0.3282586430937069	0.5229491128077131	0.2806316001015162	0.2819129831821859	0.5498252136229288	0.33419594779985984
27	0.5510204081632653	0.41626268097397084	0.7301350989150671	0.2749593809995319	0.3766020437659978	0.9078193167162179	0.7062030554795758	0.29996369894284935	1.088575730788362	1.119281449363399	0.2752781399371438	0.8084624627617714	1.1945319715821152	0.35609598857391556	0.8527011440738608	1.1875353991922317	0.28420374012746996	1.1580393687784574	1.166860933608138	0.18758127956239026	0.75091092752699	0.2553764713806639	0.15350691495153532	0.9122696507282401	0.6828659917312601	0.12052486196486331	1.0306334734992044	1.0784973154700714	0.1403187042797383	0.8590503031231311	1.1831942252616083	0.07233699466445646	0.904956071750469	1.1680374366999737	0.13408792662386632	1.117207972694103	1.1230329368378194	0.36041890200807164	0.5666581181135666	-0.38556960966239345	0.4005807303429775	0.3929301498261267	-0.6262208914187775	0.37664974946708313	0.3802805081180919	-0.4482738906228137	0.528815863375421	0.5713267044591535	-0.2551007974976708	0.5315205361368198	0.6272867248761747	0.023941202671949293	0.37394193642723417	0.5323329091489486	0.23677223436232409	0.28839801449727837	0.527259684747709	0.27760954452209397	0.2748592627463562	0.5535613931995577	0.30843831878517786	0.2746106410172039	0.5824895029521754	0.33294284531173507	0.17952397859966895	0.671894398816423	-0.32653497006898363	0.10582117280730437	0.6504496231445057	-0.02469096744337386	0.21197644540880733	0.5220490578034191	0.1900458960407648	0.32818040851398766	0.5250750792679892	0.259255736400654	0.32961268250520853	0.5222693885873156	0.27657520416889525	0.2821099474982276	0.5482194508647823	0.33191563036477767
28	0.5714285714285714	0.41629859166833916	0.7302122283457992	0.2749730035245495	0.3751168091172863	0.9073433770552833	0.7060323944593554	0.29999099172028276	1.0881083053164122	1.1184890462467236	0.27522932062049005	0.8086148844394422	1.1945813435896713	0.35778808298334863	0.8455984517967048	1.1855868479715257	0.2841950268005325	1.1579413495119117	1.1661095399048655	0.18760199954432022	0.750974247628472	0.2552752238530498	0.1539006168716053	0.9120280147314151	0.6826692618139107	0.12051911611748528	1.0305341650738318	1.07831002053621	0.13851435376234544	0.8582875878509924	1.1826914666926251	0.07230024128447848	0.9050935009053807	1.1680820030307308	0.13420740472340342	1.117857106115671	1.1249864203254596	0.3603927004574648	0.5666523139706964	-0.3855666297322917	0.40062132820071517	0.39241398076751877	-0.6260741707206274	0.3766765984102486	0.3804565421403926	-0.44787764605101915	0.5286601261427349	0.571291769014743	-0.2551234375327572	0.5336777909342072	0.6320759304987098	0.02397551964264072	0.37531837891740744	0.5337697727678485	0.2350125205187398	0.2878743602950034	0.5308604721789845	0.2757977919321562	0.2766499519289788	0.5475740416572568	0.303906742900122	0.2752253261654217	0.581264240632225	0.32843183410838817	0.18070604240426127	0.6762184374417233	-0.3272676281607281	0.10594371488481716	0.6502013810816862	-0.02472837145080929	0.21208659714535869	0.5223346388617813	0.18908351641483245	0.32810036788153696	0.5254662719126078	0.25815941795344055	0.32976580776801206	0.5216880555123532	0.27325442727824584	0.2820986338521713	0.5459318338944901	0.32986526274174277
29	0.5918367346938775	0.4162570805494986	0.7303199470287761	0.2749247932248016	0.3741814138885994	0.9070803626511	0.7059364767094056	0.30026789772697493	1.0867511830896412	1.1160670688055851	0.2752162126078898	0.8090177353665131	1.1947564260143126	0.35899606520643973	0.8408768887238447	1.1842800259151796	0.2841957917864156	1.1579665247198467	1.1672218257472002	0.18762476026068053	0.7510431065574683	0.2551069694664089	0.15409639306655348	0.9119518848106687	0.6826138795385781	0.12054266321027415	1.030723071014717	1.0786408064223296	0.13739420025419125	0.8581153143390754	1.1839062992326408	0.07229376547552652	0.9050080568218692	1.1680673522150131	0.13438287674811084	1.119022689151676	1.1261089049870798	0.36038175781951404	0.5666188306559872	-0.3856151549329608	0.40042006135714836	0.3918735518259548	-0.6260428746281737	0.37676321346852226	0.38081782185188084	-0.448093010192265	0.5289213819209295	0.5714357738393856	-0.2551468764185254	0.5349814992938211	0.6365850900219747	0.023933862785020382	0.3762460355226571	0.5360864284822973	0.23407175983717143	0.2878602858813691	0.53166877673209	0.2741351993061517	0.2781007780555559	0.5424578407465277	0.2997088203847259	0.27554419620924636	0.5800329507107768	0.3225207657733459	0.18069890861235532	0.676209743333875	-0.3273051420068789	0.10605237358129604	0.6498161355306153	-0.02475002374186088	0.21203959762318086	0.5211900867901111	0.1876238166242293	0.32834437337689165	0.5270604160244696	0.2561526194563563	0.32805701218237915	0.5217148573237356	0.2714578883712709	0.28185087633644024	0.5428602509759186	0.32819537442499574
